<svg xmlns="http://www.w3.org/2000/svg" viewBox="0 0 128 128" width="64px" height="64px"><path fill="#fff" d="M124,14c0-5.5-4.5-10-10-10H64l0,14.4c0,2.3,2.5,3.8,4.5,2.6c2.2-1.3,4.8-2,7.5-2c8.5,0,15.4,7.1,15,15.7c-0.4,7.7-6.7,14-14.4,14.2c-3,0.1-5.8-0.6-8.1-2c-2-1.2-4.5,0.3-4.5,2.6L64,64l-14.4,0c-2.3,0-3.8-2.5-2.6-4.5c1.4-2.4,2.1-5.2,2-8.1c-0.3-7.7-6.6-14-14.2-14.4C26.1,36.6,19,43.5,19,52c0,2.8,0.7,5.3,2,7.5c1.2,2-0.3,4.5-2.6,4.5L4,64v50c0,5.5,4.5,10,10,10h50l0,0h50c5.5,0,10-4.5,10-10V14z"/><path fill="#71c2ff" d="M64,127H14c-7.2,0-13-5.8-13-13V64c0-1.7,1.3-3,3-3h14.4c-1.6-2.7-2.4-5.8-2.4-9c0-5,2-9.6,5.6-13c3.6-3.4,8.3-5.2,13.3-4.9c9.2,0.4,16.7,8,17.1,17.3c0.1,3.4-0.7,6.8-2.4,9.8L64,61c1.7,0,3,1.3,3,3v14.4c0,2.2-1.2,4.2-3,5.2c-1.9,1.1-4.1,1.1-5.9,0c-2-1.1-4.2-1.7-6.5-1.6l0,0c-6.2,0.2-11.2,5.2-11.5,11.4c-0.2,3.3,1,6.5,3.3,8.9c2.3,2.4,5.4,3.7,8.7,3.7c2.1,0,4.2-0.6,6-1.6c1.8-1.1,4.1-1.1,5.9,0c1.9,1.1,3,3.1,3,5.2V124C67,125.7,65.7,127,64,127z M7,67v47c0,3.9,3.1,7,7,7h47v-11.4c-2.7,1.6-5.8,2.4-9,2.4c-5,0-9.6-2-13-5.6c-3.4-3.6-5.2-8.3-4.9-13.3c0.4-9.2,8-16.7,17.3-17.1l0,0c3.4-0.1,6.8,0.7,9.8,2.4L61,67H49.6c-2.2,0-4.2-1.2-5.2-3s-1.1-4.1,0-5.9c1.1-2,1.7-4.2,1.6-6.5c-0.2-6.2-5.2-11.2-11.4-11.5c-3.3-0.2-6.5,1-8.9,3.3C23.3,45.6,22,48.7,22,52c0,2.1,0.6,4.2,1.6,6c1.1,1.8,1.1,4.1,0,5.9s-3.1,3-5.2,3H7z"/><path fill="#444b54" d="M114,1H64c-1.7,0-3,1.3-3,3v14.4c0,2.2,1.2,4.2,3,5.2c1.9,1.1,4.1,1.1,5.9,0c1.8-1.1,3.9-1.6,6-1.6c3.3,0,6.4,1.3,8.7,3.7c2.3,2.4,3.5,5.5,3.3,8.9c-0.3,6.2-5.4,11.2-11.5,11.4c-2.3,0.1-4.5-0.5-6.5-1.6c-1.8-1.1-4.1-1.1-5.9,0c-1.9,1.1-3,3.1-3,5.2V54c0,1.7,1.3,3,3,3c1.7,0,3-1.3,3-3l-0.1-4.5c2.9,1.7,6.3,2.6,9.8,2.4c9.2-0.4,16.8-7.9,17.3-17.1c0.2-5-1.5-9.7-4.9-13.3C85.6,18,81,16,76,16c-3.2,0-6.3,0.8-9,2.4V7h47c3.9,0,7,3.1,7,7v47h-11.4c-2.2,0-4.2,1.2-5.2,3c-1.1,1.9-1.1,4.1,0,5.9c1.1,1.8,1.6,3.9,1.6,6c0,3.3-1.3,6.4-3.7,8.7c-2.4,2.3-5.6,3.5-8.9,3.3c-6.2-0.3-11.2-5.4-11.4-11.5c-0.1-2.3,0.5-4.5,1.6-6.5c1.1-1.8,1.1-4.1,0-5.9c-1.1-1.9-3.1-3-5.2-3H74c-1.7,0-3,1.3-3,3s1.3,3,3,3l4.5-0.1c-1.7,3-2.6,6.3-2.4,9.8c0.4,9.2,7.9,16.8,17.1,17.3c5,0.2,9.7-1.5,13.3-4.9c3.6-3.4,5.6-8.1,5.6-13c0-3.2-0.8-6.3-2.4-9H121v47c0,3.9-3.1,7-7,7H74c-1.7,0-3,1.3-3,3s1.3,3,3,3h40c7.2,0,13-5.8,13-13V14C127,6.8,121.2,1,114,1z"/></svg>